<svg width="292" height="66" viewBox="0 0 292 66" fill="none" xmlns="http://www.w3.org/2000/svg">
<g clip-path="url(#clip0_10192_28)">
<path d="M0 65.68V63V2.63002V0.31002L29.76 0.27002C30.0867 0.27002 30.25 0.433353 30.25 0.76002V9.26002C30.2498 9.4184 30.3102 9.5706 30.4185 9.68444C30.5267 9.79828 30.6743 9.86483 30.83 9.87002C44.33 10.37 55 22.04 53.46 35.25C52.1 46.84 42.65 56 30.83 56.09C30.4433 56.09 30.25 55.9 30.25 55.52V10.51C30.2504 10.405 30.2288 10.301 30.1865 10.2046C30.1441 10.1082 30.082 10.0216 30.004 9.95021C29.926 9.87879 29.8339 9.82413 29.7333 9.78967C29.6328 9.75522 29.5261 9.74171 29.42 9.75002C12.76 11.08 1.62 27.55 9.43 43.32C13.2567 51.04 20.08 55.3767 29.9 56.33C30.1267 56.35 30.24 56.4767 30.24 56.71L30.25 65.48C30.25 65.5463 30.2237 65.6099 30.1768 65.6568C30.1299 65.7037 30.0663 65.73 30 65.73L0 65.68Z" fill="#57586E"/>
<path d="M76.8602 15.64H70.8802C70.6648 15.64 70.4902 15.8146 70.4902 16.03V47.61C70.4902 47.8254 70.6648 48 70.8802 48H76.8602C77.0756 48 77.2502 47.8254 77.2502 47.61V16.03C77.2502 15.8146 77.0756 15.64 76.8602 15.64Z" fill="#57586E"/>
<path d="M165.72 23.87C167.924 23.87 169.71 22.0836 169.71 19.88C169.71 17.6764 167.924 15.89 165.72 15.89C163.517 15.89 161.73 17.6764 161.73 19.88C161.73 22.0836 163.517 23.87 165.72 23.87Z" fill="#57586E"/>
<path d="M292 20.66V20.99C291.253 24.1167 289.563 25.6567 286.93 25.61C281.87 25.53 280.04 18.98 284.34 16.52C287.84 14.53 291.15 16.92 292 20.66Z" fill="#57586E"/>
<path d="M104.58 36.93C104.58 38.477 104.275 40.0088 103.683 41.438C103.091 42.8673 102.223 44.1659 101.129 45.2597C100.035 46.3536 98.7368 47.2213 97.3075 47.8133C95.8783 48.4053 94.3465 48.71 92.7995 48.71C89.6753 48.71 86.679 47.4689 84.4698 45.2597C82.2606 43.0506 81.0195 40.0543 81.0195 36.93C81.0195 35.3831 81.3242 33.8512 81.9162 32.422C82.5082 30.9928 83.3759 29.6942 84.4698 28.6003C86.679 26.3911 89.6753 25.15 92.7995 25.15C94.3465 25.15 95.8783 25.4547 97.3075 26.0467C98.7368 26.6387 100.035 27.5064 101.129 28.6003C102.223 29.6942 103.091 30.9928 103.683 32.422C104.275 33.8512 104.58 35.3831 104.58 36.93ZM97.9395 37.06C97.9395 35.6942 97.3969 34.3842 96.4311 33.4184C95.4653 32.4526 94.1554 31.91 92.7895 31.91C91.4237 31.91 90.1137 32.4526 89.1479 33.4184C88.1821 34.3842 87.6395 35.6942 87.6395 37.06C87.6395 37.7363 87.7727 38.406 88.0316 39.0308C88.2904 39.6557 88.6697 40.2234 89.1479 40.7016C89.6262 41.1798 90.1939 41.5592 90.8187 41.818C91.4435 42.0768 92.1132 42.21 92.7895 42.21C93.4658 42.21 94.1355 42.0768 94.7604 41.818C95.3852 41.5592 95.9529 41.1798 96.4311 40.7016C96.9094 40.2234 97.2887 39.6557 97.5475 39.0308C97.8063 38.406 97.9395 37.7363 97.9395 37.06Z" fill="#57586E"/>
<path d="M124.74 27.5L124.73 26.49C124.73 26.3458 124.786 26.2074 124.885 26.1046C124.984 26.0017 125.119 25.9426 125.26 25.94L130.72 25.87C131.067 25.87 131.24 26.04 131.24 26.38C131.26 30.8933 131.264 35.4566 131.25 40.07C131.22 49.21 131.63 55.72 121.52 57.32C116.24 58.1533 112.097 56.5666 109.09 52.56C108.897 52.3133 108.937 52.1133 109.21 51.96L114 49.21C114.294 49.0366 114.547 49.0866 114.76 49.36C118.1 53.57 126.15 52.03 124.57 45.53C124.497 45.2366 124.35 45.1933 124.13 45.4C122.977 46.4933 122.107 47.12 121.52 47.28C108.69 50.7 101.03 33.52 112.63 26.93C116.844 24.5366 120.757 24.7866 124.37 27.68C124.617 27.8733 124.74 27.8133 124.74 27.5ZM124.77 36.29C124.77 34.8499 124.198 33.4687 123.18 32.4504C122.161 31.4321 120.78 30.86 119.34 30.86C117.9 30.86 116.519 31.4321 115.501 32.4504C114.482 33.4687 113.91 34.8499 113.91 36.29C113.91 37.7301 114.482 39.1112 115.501 40.1296C116.519 41.1479 117.9 41.72 119.34 41.72C120.78 41.72 122.161 41.1479 123.18 40.1296C124.198 39.1112 124.77 37.7301 124.77 36.29Z" fill="#57586E"/>
<path d="M158.58 36.93C158.58 38.477 158.275 40.0088 157.683 41.438C157.091 42.8673 156.223 44.1659 155.129 45.2597C154.035 46.3536 152.737 47.2213 151.308 47.8133C149.878 48.4053 148.347 48.71 146.8 48.71C143.675 48.71 140.679 47.4689 138.47 45.2597C136.261 43.0506 135.02 40.0543 135.02 36.93C135.02 35.3831 135.324 33.8512 135.916 32.422C136.508 30.9928 137.376 29.6942 138.47 28.6003C140.679 26.3911 143.675 25.15 146.8 25.15C148.347 25.15 149.878 25.4547 151.308 26.0467C152.737 26.6387 154.035 27.5064 155.129 28.6003C156.223 29.6942 157.091 30.9928 157.683 32.422C158.275 33.8512 158.58 35.3831 158.58 36.93ZM151.95 37.06C151.95 35.6942 151.407 34.3842 150.441 33.4184C149.475 32.4526 148.165 31.91 146.8 31.91C145.434 31.91 144.124 32.4526 143.158 33.4184C142.192 34.3842 141.65 35.6942 141.65 37.06C141.65 37.7363 141.783 38.406 142.042 39.0308C142.3 39.6557 142.68 40.2234 143.158 40.7016C143.636 41.1798 144.204 41.5592 144.829 41.818C145.454 42.0768 146.123 42.21 146.8 42.21C148.165 42.21 149.475 41.6674 150.441 40.7016C151.407 39.7358 151.95 38.4259 151.95 37.06Z" fill="#57586E"/>
<path d="M180.5 46.78V56.53C180.5 56.7567 180.387 56.87 180.16 56.87L174.1 56.85C174.006 56.8474 173.917 56.8083 173.852 56.7411C173.787 56.6738 173.75 56.5838 173.75 56.49V26.32C173.75 26.264 173.761 26.2085 173.783 26.1569C173.805 26.1053 173.836 26.0585 173.877 26.0194C173.917 25.9803 173.964 25.9495 174.016 25.929C174.068 25.9085 174.124 25.8987 174.18 25.9H179.96C180.333 25.9 180.517 26.0867 180.51 26.46L180.5 27.25C180.493 27.7233 180.67 27.8033 181.03 27.49C181.81 26.8 182.47 26.07 183.49 25.77C197.15 21.78 204.07 41.51 191.51 47.51C187.737 49.31 184.203 48.9967 180.91 46.57C180.637 46.37 180.5 46.44 180.5 46.78ZM191.28 37.08C191.28 35.6717 190.721 34.3211 189.725 33.3252C188.729 32.3294 187.378 31.77 185.97 31.77C184.562 31.77 183.211 32.3294 182.215 33.3252C181.219 34.3211 180.66 35.6717 180.66 37.08C180.66 38.4883 181.219 39.8389 182.215 40.8347C183.211 41.8305 184.562 42.39 185.97 42.39C187.378 42.39 188.729 41.8305 189.725 40.8347C190.721 39.8389 191.28 38.4883 191.28 37.08Z" fill="#57586E"/>
<path d="M208.06 31.43C207.869 31.5138 207.708 31.6549 207.6 31.8339C207.492 32.013 207.442 32.2211 207.458 32.4295C207.473 32.638 207.553 32.8366 207.686 32.9979C207.819 33.1591 207.998 33.2752 208.2 33.33C211.92 34.29 217.48 35.21 218.36 39.84C220.29 50.05 204.26 51.5 199.86 43.62C199.76 43.44 199.8 43.2967 199.98 43.19L205.07 40.32C205.297 40.1933 205.477 40.2433 205.61 40.47C207.037 42.9433 208.677 43.6433 210.53 42.57C212.29 41.5433 212.197 40.7267 210.25 40.12C205.5 38.64 199.64 37.44 200.79 31.01C201.29 28.21 203.15 26.4067 206.37 25.6C211.184 24.38 215.09 25.72 218.09 29.62C218.217 29.78 218.19 29.91 218.01 30.01L212.76 32.9C212.6 32.9867 212.47 32.9533 212.37 32.8C211.297 31.1133 209.86 30.6567 208.06 31.43Z" fill="#57586E"/>
<path d="M254.85 27.21C258.684 24.2833 262.367 24.43 265.9 27.65C266.127 27.8567 266.35 27.8533 266.57 27.64C272.62 21.74 281.6 26.61 281.32 34.96C281.18 39.2 281.28 43.45 281.24 47.56C281.24 47.8533 281.094 48 280.8 48H275C274.667 48 274.5 47.8333 274.5 47.5L274.49 33.9C274.491 33.5609 274.422 33.2253 274.288 32.9133C274.154 32.6014 273.958 32.3197 273.711 32.0851C273.465 31.8505 273.172 31.668 272.853 31.5485C272.533 31.429 272.192 31.3751 271.85 31.39L271.03 31.43C268.87 31.5367 267.787 32.67 267.78 34.83L267.74 47.51C267.74 47.8367 267.574 48 267.24 48H261.58C261.47 47.9974 261.364 47.9524 261.286 47.8742C261.208 47.7959 261.163 47.6906 261.16 47.58L261.12 34.08C261.119 33.3972 260.856 32.741 260.385 32.2462C259.914 31.7515 259.272 31.4558 258.59 31.42L257.7 31.37C257.27 31.3482 256.84 31.4145 256.436 31.5646C256.032 31.7148 255.663 31.9458 255.351 32.2434C255.039 32.541 254.792 32.8991 254.623 33.2956C254.454 33.6922 254.368 34.119 254.37 34.55L254.38 47.65C254.38 47.7428 254.344 47.8318 254.278 47.8975C254.212 47.9631 254.123 48 254.03 48H247.99C247.9 48 247.814 47.9642 247.75 47.9004C247.686 47.8366 247.65 47.7502 247.65 47.66V26.18C247.65 26.1004 247.681 26.0241 247.735 25.9679C247.79 25.9116 247.863 25.88 247.94 25.88L253.97 25.92C254.264 25.92 254.407 26.0667 254.4 26.36L254.39 26.98C254.384 27.3733 254.537 27.45 254.85 27.21Z" fill="#57586E"/>
<path d="M168.71 25.88H162.77C162.549 25.88 162.37 26.0591 162.37 26.28V47.6C162.37 47.8209 162.549 48 162.77 48H168.71C168.931 48 169.11 47.8209 169.11 47.6V26.28C169.11 26.0591 168.931 25.88 168.71 25.88Z" fill="#57586E"/>
<path d="M235.76 46.47C230.1 51.01 222.14 48.31 221.78 40.62C221.54 35.68 221.453 30.9233 221.52 26.35C221.526 26.0367 221.686 25.88 222 25.88L227.7 25.9C228.06 25.9 228.243 26.0833 228.25 26.45L228.26 39.4C228.26 39.8101 228.341 40.2162 228.499 40.5948C228.657 40.9734 228.889 41.3172 229.181 41.6062C229.472 41.8953 229.819 42.1239 230.2 42.279C230.581 42.4341 230.988 42.5126 231.4 42.51H232.44C235.053 42.49 236.363 41.1733 236.37 38.56L236.38 26.19C236.38 25.99 236.48 25.89 236.68 25.89H242.69C242.896 25.89 243 25.9933 243 26.2V47.5C243 47.8333 242.833 48 242.5 48H236.72C236.36 48 236.193 47.8233 236.22 47.47L236.26 46.73C236.286 46.27 236.12 46.1833 235.76 46.47Z" fill="#57586E"/>
</g>
<defs>
<clipPath id="clip0_10192_28">
<rect width="292" height="66" fill="white"/>
</clipPath>
</defs>
</svg>
